<?xml version="1.0" encoding="utf-8"?>
<!-- Generator: Adobe Illustrator 15.0.2, SVG Export Plug-In . SVG Version: 6.00 Build 0)  -->
<!DOCTYPE svg PUBLIC "-//W3C//DTD SVG 1.1//EN" "http://www.w3.org/Graphics/SVG/1.1/DTD/svg11.dtd">
<svg version="1.1" id="Layer_1" xmlns="http://www.w3.org/2000/svg" xmlns:xlink="http://www.w3.org/1999/xlink" x="0px" y="0px"
	 width="2500px" height="2500px" viewBox="0 0 2500 2500" enable-background="new 0 0 2500 2500" xml:space="preserve">
<g>
	<g>
		<path fill="#FFFFFF" d="M1653.964,2154.169c0,88.884-72.723,161.606-161.606,161.606H930.644
			c-88.883,0-161.606-72.723-161.606-161.606V340.377c0-88.884,72.723-161.607,161.606-161.607h561.713
			c88.884,0,161.606,72.723,161.606,161.607L1653.964,2154.169L1653.964,2154.169z"/>
	</g>
	<path fill="#0E499D" d="M1454.311,2154.948c2.054-33.168,1.372-44.111-3.113-49.511c-3.403-4.105-5.815-16.907-5.915-31.432
		c-0.148-22.004-3.103-30.22-28.942-80.396c-27.57-53.558-28.558-56.483-23.658-70.028c4.564-12.641,3.915-16.887-6.072-39.921
		c-9.965-22.979-14.446-27.983-41.133-45.995c-51.771-34.937-93.379-70.559-162.667-139.236
		c-77.354-76.702-141.579-161.036-201.136-264.126c-20.679-35.792-22.299-37.278-40.566-37.371
		c-13.715-0.072-30.185-12.034-30.123-21.9c0.017-2.857-16.768-39.831-37.299-82.148c-53.282-109.828-57.838-133.218-41.545-213.186
		c9.67-47.416,11.487-51.68,31.655-74.008c21.412-23.691,18.053-30.362-17.015-33.828c-46.85-4.64-46.371-4.346-56.082-34.408
		c-4.776-14.785-8.685-31.541-8.685-37.233c0-18.867,21.423-78.572,50.878-141.796c15.978-34.312,36.468-81.105,45.528-103.982
		c32.233-81.414,76.704-146.511,112.611-164.832c14.355-7.325,42.256-12.83,125.286-24.74c46.217-6.63,49.473-9.988,56.111-57.892
		c3.862-27.859,3.477-32.226-3.817-44.04c-5.263-8.51-8.104-20.557-8.104-34.345c0-19.392,1.086-21.8,12.479-27.691
		c11.012-5.692,12.479-8.613,12.479-24.856c0-38.856,7.835-60.49,29.644-81.7c5.207-5.04,10.264-10.233,15.161-15.574H944.689
		c-97.005,0-175.651,78.643-175.651,175.652v1791.154c0,97.003,78.642,175.655,175.651,175.655H1467.2
		c-1.764-3.888-5.448-10.184-9.725-16.416C1445.588,2287.509,1445.719,2293.586,1454.311,2154.948z"/>
	<path fill="#D30529" d="M1478.296,178.77h-151.257c1.482,1.764,3.623,3.66,6.226,5.366c18.704,12.253,47.078,41.77,51.604,53.679
		c6.812,17.933,5.278,41.752-4.337,67.472c-5.528,14.764-7.854,27.976-6.293,35.758c2.941,14.71-11.504,45.896-28.611,61.758
		c-6.168,5.718-14.908,17.599-19.423,26.407c-4.516,8.803-15.723,24.157-24.894,34.113c-9.172,9.956-16.065,21.283-15.297,25.17
		c0.759,3.891,11.674,12.612,24.254,19.382c12.585,6.771,31.419,20.056,41.867,29.524c10.438,9.468,31.52,26.075,46.842,36.903
		c55.053,38.918,81.472,105.464,81.745,205.922c0.119,44.515,21.832,148.853,37.385,179.667
		c21.304,42.202,29.016,65.467,35.685,107.583c8.56,54.121,8.82,54.731,26.028,61.92c16.447,6.873,59.045,41.455,59.045,47.936
		c0,2.231,4.214,9.956,9.357,17.173l5.742,8.043V354.417C1653.948,257.409,1575.305,178.77,1478.296,178.77z M1651.329,1354.938
		c0,2.106-9.264,13.959-20.578,26.344c-78.92,86.338-213.982,67.104-263.563-37.552c-11.996-25.33-13.248-31.693-13.248-67.48
		c0-34.167,1.512-42.735,11.146-63.299c15.405-32.867,44.81-62.973,76.954-78.803c14.623-7.196,27.454-14.475,28.496-16.177
		c1.047-1.698-12.15-31.49-29.34-66.216c-39.587-79.997-44.276-94.303-62.237-189.858c-8.127-43.19-15.607-80.86-16.645-83.723
		c-3.326-9.208-14.945-5.619-43.687,13.483l-28.115,18.689l-25.48,64.539c-14.008,35.49-25.48,69.807-25.48,76.247
		c0,7.25,4.123,15.561,10.794,21.8c16.652,15.561,21.147,26.988,49.37,125.574c20.797,72.623,25.431,93.84,22.118,101.131
		c-3.185,6.973-1.119,22.279,8.456,62.672c14.077,59.438,19.329,90.937,25.894,155.351c6.655,65.39,13.694,86.106,51.58,151.816
		c25.187,43.668,32.921,69.992,50.605,172.234c8.113,46.916,16.306,88.214,18.21,91.766c1.908,3.554,10.148,16.405,18.32,28.547
		c22.465,33.391,25.857,48.754,17.781,80.885c-3.694,14.679-7.865,36.791-9.279,49.144c-2.838,24.72,6.109,84.594,16.269,108.914
		c3.433,8.209,5.295,18.516,4.15,22.91c-1.151,4.396,3.656,26.364,10.672,48.817c21.948,70.219,20.977,100.003-4.301,131.923
		c-4.528,5.72-6.961,8.971-8.41,11.162c75.973-19.348,132.168-88.211,132.168-170.214v-794.155
		C1652.424,1351.973,1651.329,1353.331,1651.329,1354.938L1651.329,1354.938z"/>
	<path fill="#FFFFFF" d="M831.543,1925.85h71.008l40.963,181.084h0.686V1925.85h59.4v293.849h-69.641l-42.33-181.496h-0.686v181.496
		h-59.4V1925.85z M1034.344,1925.85h95.935c45.403,0,66.565,29.219,66.565,73.252c0,31.275-11.268,59.268-38.232,65.844v0.822
		c32.089,3.7,45.065,36.629,45.065,67.079c0,51.035-20.481,86.838-73.398,86.838h-95.935V1925.85L1034.344,1925.85z
		 M1097.841,2041.086h15.368c12.972,0,20.143-13.993,20.143-29.634c0-16.462-7.171-30.453-20.143-30.453h-15.368V2041.086z
		 M1097.841,2164.549h17.755c11.608,0,22.53-12.348,22.53-36.221c0-22.635-10.926-35.392-22.53-35.392h-17.755V2164.549z
		 M1266.875,1925.85h79.886l59.399,293.849h-67.6l-6.486-51.444h-50.522l-6.482,51.444h-67.607L1266.875,1925.85z
		 M1307.152,1985.937h-0.678l-17.412,124.702h35.502L1307.152,1985.937z"/>
</g>
</svg>
