<?xml version="1.0" encoding="utf-8"?>
<!-- Generator: Adobe Illustrator 15.0.2, SVG Export Plug-In . SVG Version: 6.00 Build 0)  -->
<!DOCTYPE svg PUBLIC "-//W3C//DTD SVG 1.1//EN" "http://www.w3.org/Graphics/SVG/1.1/DTD/svg11.dtd">
<svg version="1.1" id="Layer_1" xmlns="http://www.w3.org/2000/svg" xmlns:xlink="http://www.w3.org/1999/xlink" x="0px" y="0px"
	 width="173.333px" height="41.167px" viewBox="0 0 173.333 41.167" enable-background="new 0 0 173.333 41.167"
	 xml:space="preserve">
<g>
	<g>
		<path fill="#EABF73" d="M36.672,25.378c-0.62,0-1.117-0.496-1.117-1.117V5.573c0-0.621,0.497-1.118,1.117-1.118h3.074
			c3.631,0,5.246,1.987,5.246,5.991c0,2.887-1.335,4.471-1.335,4.471c0.807,0.994,1.335,2.576,1.335,4.471
			c0,4.004-1.615,5.99-5.246,5.99H36.672z M38.659,7.528v5.836h1.087c1.521,0,2.142-0.838,2.142-2.918s-0.621-2.918-2.142-2.918
			H38.659z M38.659,16.438v5.867h1.087c1.521,0,2.142-0.838,2.142-2.918c0-2.111-0.621-2.949-2.142-2.949H38.659z"/>
		<path fill="#EABF73" d="M47.133,5.542c0-0.621,0.497-1.118,1.086-1.118h0.87c0.621,0,1.117,0.497,1.117,1.118v14.125
			c0,1.645,0.497,2.607,2.018,2.607c1.583,0,2.019-1.118,2.019-2.607V5.542c0-0.621,0.496-1.118,1.086-1.118h0.869
			c0.621,0,1.118,0.497,1.118,1.118v14.125c0,3.477-1.491,5.68-5.092,5.68c-3.725,0-5.091-2.39-5.091-5.68V5.542z"/>
		<path fill="#EABF73" d="M59.983,10.509c0-2.359,0.684-3.911,1.677-4.843c1.024-0.932,2.266-1.211,3.446-1.211
			c1.148,0,2.39,0.279,3.414,1.211c0.994,0.932,1.646,2.483,1.646,4.843v0.435c0,0.621-0.497,1.117-1.086,1.117h-0.9
			c-0.621,0-1.118-0.496-1.118-1.117v-0.435c0-2.08-0.683-2.98-1.955-2.98c-1.305,0-1.987,0.9-1.987,2.98v8.785
			c0,2.08,0.652,3.012,1.987,3.012c0.589,0,1.148-0.249,1.427-0.559c0.373-0.498,0.528-1.336,0.528-2.453v-0.435
			c0-0.62,0.497-1.118,1.118-1.118h0.9c0.589,0,1.086,0.498,1.086,1.118v0.435c0,2.453-0.651,3.881-1.614,4.843
			c-1.024,0.993-2.328,1.241-3.445,1.241c-1.181,0-2.453-0.248-3.478-1.241c-0.962-0.962-1.646-2.39-1.646-4.843V10.509z"/>
		<path fill="#EABF73" d="M80.472,4.983c0.155-0.249,0.621-0.528,0.932-0.528h1.056c0.962,0,1.459,0.9,0.962,1.708l-5.184,8.35
			l5.215,9.189c0.435,0.807-0.062,1.676-0.993,1.676h-0.994c-0.31,0-0.807-0.279-0.962-0.558l-4.159-7.265l-0.373,0.559v6.146
			c0,0.621-0.497,1.117-1.117,1.117h-0.87c-0.62,0-1.117-0.496-1.117-1.117V5.573c0-0.621,0.497-1.118,1.117-1.118h0.87
			c0.62,0,1.117,0.497,1.117,1.118v6.705L80.472,4.983z"/>
		<path fill="#EABF73" d="M93.416,4.455c0.621,0,1.118,0.497,1.118,1.118v0.838c0,0.62-0.497,1.117-1.118,1.117h-4.749v5.836h3.911
			c0.62,0,1.117,0.497,1.117,1.118v0.838c0,0.622-0.497,1.118-1.117,1.118h-3.911v5.867h4.749c0.621,0,1.118,0.496,1.118,1.117
			v0.838c0,0.621-0.497,1.117-1.118,1.117h-6.705c-0.621,0-1.117-0.496-1.117-1.117V5.573c0-0.621,0.496-1.118,1.117-1.118H93.416z"
			/>
		<path fill="#EABF73" d="M96.458,5.542c0-0.621,0.497-1.118,1.117-1.118h8.134c0.62,0,1.117,0.497,1.117,1.118v0.869
			c0,0.62-0.497,1.117-1.117,1.117h-2.546v16.701c0,0.621-0.496,1.117-1.117,1.117h-0.838c-0.621,0-1.118-0.496-1.118-1.117V7.528
			h-2.515c-0.62,0-1.117-0.497-1.117-1.117V5.542z"/>
		<path fill="#EABF73" d="M106.856,19.263c0-0.59,0.497-1.086,1.117-1.086h0.869c0.59,0,1.118,0.496,1.118,1.086v0.436
			c0,1.271,0.249,1.924,0.62,2.297c0.28,0.279,0.715,0.311,1.118,0.311c1.118,0,1.708-0.807,1.708-2.607V5.573
			c0-0.621,0.496-1.118,1.117-1.118h0.869c0.59,0,1.086,0.497,1.086,1.118v14.125c0,3.725-1.553,5.68-4.78,5.68
			s-4.843-1.955-4.843-5.68V19.263z"/>
		<path fill="#EABF73" d="M119.18,5.542c0-0.621,0.497-1.118,1.087-1.118h0.869c0.621,0,1.117,0.497,1.117,1.118v14.125
			c0,1.645,0.497,2.607,2.018,2.607c1.584,0,2.019-1.118,2.019-2.607V5.542c0-0.621,0.497-1.118,1.086-1.118h0.87
			c0.62,0,1.117,0.497,1.117,1.118v14.125c0,3.477-1.49,5.68-5.092,5.68c-3.725,0-5.091-2.39-5.091-5.68V5.542z"/>
		<path fill="#EABF73" d="M140.537,25.378c-0.372,0-0.9-0.341-1.024-0.682l-4.314-10.68v10.244c0,0.621-0.528,1.117-1.118,1.117
			h-0.9c-0.59,0-1.118-0.496-1.118-1.117V5.573c0-0.621,0.528-1.118,1.118-1.118h0.745c0.404,0,0.9,0.342,1.024,0.683l4.315,10.68
			V5.573c0-0.621,0.496-1.118,1.117-1.118h0.869c0.621,0,1.117,0.497,1.117,1.118v18.688c0,0.621-0.496,1.117-1.117,1.117H140.537z"
			/>
		<path fill="#EABF73" d="M152.396,4.983c0.154-0.249,0.62-0.528,0.931-0.528h1.056c0.962,0,1.459,0.9,0.962,1.708l-5.185,8.35
			l5.215,9.189c0.436,0.807-0.062,1.676-0.992,1.676h-0.994c-0.311,0-0.807-0.279-0.962-0.558l-4.16-7.265l-0.372,0.559v6.146
			c0,0.621-0.497,1.117-1.117,1.117h-0.869c-0.621,0-1.117-0.496-1.117-1.117V5.573c0-0.621,0.496-1.118,1.117-1.118h0.869
			c0.62,0,1.117,0.497,1.117,1.118v6.705L152.396,4.983z"/>
		<path fill="#EABF73" d="M160.527,24.261c0,0.621-0.528,1.117-1.118,1.117h-0.869c-0.62,0-1.117-0.496-1.117-1.117V5.573
			c0-0.621,0.497-1.118,1.117-1.118h0.869c0.59,0,1.118,0.497,1.118,1.118V24.261z"/>
		<path fill="#EABF73" d="M171.05,4.455c0.622,0,1.118,0.497,1.118,1.118v0.838c0,0.62-0.496,1.117-1.118,1.117h-4.749v5.836h3.911
			c0.621,0,1.117,0.497,1.117,1.118v0.838c0,0.622-0.496,1.118-1.117,1.118h-3.911v5.867h4.749c0.622,0,1.118,0.496,1.118,1.117
			v0.838c0,0.621-0.496,1.117-1.118,1.117h-6.705c-0.62,0-1.117-0.496-1.117-1.117V5.573c0-0.621,0.497-1.118,1.117-1.118H171.05z"
			/>
	</g>
	<path fill="#EABF73" d="M25.889,5.966c-0.534-0.64-1.124-1.23-1.763-1.766c-2.432-2.039-5.562-3.27-8.975-3.27
		c-3.412,0-6.543,1.23-8.974,3.27C5.539,4.735,4.948,5.326,4.414,5.966c-2.026,2.428-3.249,5.549-3.249,8.951
		c0,3.384,1.209,6.49,3.216,8.912c0.532,0.643,1.123,1.234,1.759,1.772c2.437,2.058,5.581,3.302,9.012,3.302
		c3.432,0,6.576-1.244,9.012-3.302c0.638-0.538,1.227-1.13,1.759-1.772c2.008-2.422,3.216-5.528,3.216-8.912
		C29.138,11.515,27.916,8.394,25.889,5.966z M4.543,13.678c0.233-2.008,1.032-3.841,2.223-5.353
		c1.127,1.532,1.871,3.364,2.087,5.353H4.543z M8.845,16.155c-0.227,1.979-0.974,3.801-2.103,5.324
		c-1.178-1.506-1.968-3.329-2.199-5.324H8.845z M13.913,25.526c-2.035-0.236-3.893-1.054-5.415-2.271
		c1.567-1.994,2.589-4.436,2.838-7.1h2.577V25.526z M13.913,13.678h-2.572c-0.236-2.671-1.25-5.12-2.812-7.123
		c1.518-1.204,3.363-2.012,5.385-2.247V13.678z M21.451,13.678c0.216-1.988,0.96-3.82,2.087-5.353
		c1.19,1.512,1.989,3.345,2.223,5.353H21.451z M25.761,16.155c-0.231,1.995-1.021,3.818-2.199,5.324
		c-1.129-1.523-1.876-3.346-2.103-5.324H25.761z M16.391,4.308c2.021,0.235,3.867,1.043,5.385,2.247
		c-1.562,2.003-2.575,4.452-2.812,7.123h-2.572V4.308z M16.391,25.526v-9.371h2.577c0.249,2.664,1.271,5.105,2.838,7.1
		C20.282,24.473,18.426,25.29,16.391,25.526z"/>
</g>
<g>
	<path fill="#EABF73" d="M139.458,28.604h2.969c1.353,0,2.335,0.193,2.946,0.578c0.611,0.385,0.917,0.997,0.917,1.837
		c0,0.569-0.134,1.037-0.401,1.403c-0.268,0.365-0.624,0.585-1.067,0.659v0.065c0.605,0.135,1.041,0.387,1.309,0.757
		c0.268,0.37,0.401,0.861,0.401,1.475c0,0.87-0.314,1.549-0.943,2.036c-0.629,0.487-1.482,0.731-2.562,0.731h-3.569V28.604z
		 M141.481,32.382h1.174c0.548,0,0.945-0.084,1.191-0.254c0.246-0.169,0.369-0.45,0.369-0.842c0-0.365-0.134-0.627-0.401-0.786
		c-0.268-0.159-0.69-0.238-1.269-0.238h-1.063V32.382z M141.481,33.988v2.486h1.318c0.557,0,0.968-0.106,1.233-0.32
		c0.265-0.213,0.398-0.539,0.398-0.979c0-0.792-0.566-1.188-1.697-1.188H141.481z"/>
	<path fill="#EABF73" d="M153.93,38.144h-5.494v-9.54h5.494v1.657h-3.471v2.095h3.23v1.657h-3.23v2.46h3.471V38.144z"/>
	<path fill="#EABF73" d="M159.601,38.144h-2.022v-7.856h-2.591v-1.684h7.204v1.684h-2.59V38.144z"/>
	<path fill="#EABF73" d="M169.499,38.144l-0.692-2.271h-3.478l-0.692,2.271h-2.179l3.367-9.579h2.473l3.38,9.579H169.499z
		 M168.325,34.177c-0.64-2.057-1-3.221-1.08-3.491c-0.081-0.27-0.138-0.482-0.173-0.64c-0.143,0.557-0.555,1.934-1.233,4.13H168.325
		z"/>
</g>
</svg>
